<svg width="24" height="24" viewBox="0 0 24 24" fill="none" xmlns="http://www.w3.org/2000/svg">
<path fill-rule="evenodd" clip-rule="evenodd" d="M3.93561 14.3605C3.61402 11.8102 6.40866 11.2616 8.39932 10.7996C8.39932 10.7996 10.1993 11.9996 11.9993 11.9996C13.7993 11.9996 15.5993 10.7996 15.5993 10.7996C17.594 11.2606 20.4182 11.8153 20.057 14.3807C19.0304 17.8602 15.8114 20.3996 11.9993 20.3996C8.17979 20.3996 4.9557 17.8504 3.93561 14.3605ZM10.2948 16.4165C10.4601 16.5923 10.4601 16.8559 10.2948 17.0316C10.2122 17.1195 10.1089 17.1635 10.0056 17.1635C9.90226 17.1635 9.79896 17.1195 9.71632 17.0316L8.66268 15.9113C8.4974 15.7355 8.4974 15.4719 8.66268 15.2962L9.71632 14.1758C9.8816 14.0001 10.1295 14.0001 10.2948 14.1758C10.4601 14.3516 10.4601 14.6371 10.2948 14.8129L9.53039 15.6257L10.2948 16.4165ZM13.0632 13.5607L11.9063 17.9323C11.8649 18.13 11.6997 18.2619 11.5137 18.2619C11.4931 18.2619 11.4517 18.2619 11.4104 18.2399C11.1832 18.174 11.0592 17.9323 11.1212 17.6907L12.2781 13.3191C12.3401 13.0774 12.5674 12.9456 12.7946 13.0115C13.0012 13.0774 13.1252 13.3191 13.0632 13.5607ZM15.3564 15.9332L14.3028 17.0536C14.2201 17.1415 14.1168 17.1854 14.0135 17.1854C13.9102 17.1854 13.8069 17.1415 13.7243 17.0536C13.559 16.8779 13.559 16.6143 13.7243 16.4385L14.4887 15.6257L13.7243 14.7909C13.559 14.6152 13.559 14.3516 13.7243 14.1758C13.8896 14.0001 14.1375 14.0001 14.3028 14.1758L15.3564 15.3181C15.5217 15.4939 15.5217 15.7575 15.3564 15.9332Z" fill="#62626A"/>
<path d="M12.0022 3.59961C13.9738 3.60118 15.5993 5.21191 15.5993 7.18941C15.5993 9.18828 13.9722 10.7996 11.9993 10.7996C10.0264 10.7996 8.39931 9.18828 8.39931 7.20981C8.39931 5.21094 10.0264 3.59961 11.9993 3.59961" fill="#62626A"/>
</svg>
