<svg width="24" height="24" viewBox="0 0 24 24" fill="none" xmlns="http://www.w3.org/2000/svg">
<path d="M20.1328 5.31877L20.1332 5.3191C20.5513 5.73699 20.8829 6.23316 21.1092 6.77926C21.3355 7.32537 21.4519 7.9107 21.4519 8.50183C21.4519 9.09295 21.3355 9.67828 21.1092 10.2244C20.8829 10.7705 20.5513 11.2667 20.1332 11.6846L20.133 11.6847L19.073 12.7447L12.0001 19.8176L4.92723 12.7447L3.86723 11.6847C3.02307 10.8406 2.54883 9.69564 2.54883 8.50183C2.54883 7.30801 3.02307 6.16309 3.86723 5.31893C4.71138 4.47478 5.8563 4.00053 7.05012 4.00053C8.24394 4.00053 9.38886 4.47478 10.233 5.31893L11.293 6.37893L12.0001 7.08604L12.7072 6.37893L13.7672 5.31893L13.7674 5.31877C14.1853 4.90068 14.6815 4.56902 15.2276 4.34274C15.7737 4.11647 16.359 4 16.9501 4C17.5412 4 18.1266 4.11647 18.6727 4.34274C19.2188 4.56902 19.715 4.90068 20.1328 5.31877Z" stroke="#0A0A0B" stroke-width="2" stroke-linecap="round"/>
</svg>
