<svg width="364" height="553" viewBox="0 0 364 553" fill="none" xmlns="http://www.w3.org/2000/svg">
<path d="M0 553L-4.63479e-06 446.968C118.523 446.968 214.968 350.523 214.968 232C214.968 113.477 118.523 17.0317 -2.34279e-05 17.0317L-2.80627e-05 -89C85.6968 -89 166.31 -55.5928 227.024 4.97594C287.593 65.5447 321 146.158 321 232C321 317.842 287.593 398.31 227.024 459.024C166.31 519.593 85.6968 553 0 553Z" fill="#008AFF"/>
<path d="M142.218 215H51.5L161.281 -48H252L142.218 215Z" fill="#0A0A0B"/>
<path d="M138 204H0V215H138V204Z" fill="#0A0A0B"/>
</svg>
