<svg width="594" height="597" viewBox="0 0 594 597" fill="none" xmlns="http://www.w3.org/2000/svg">
<mask id="path-1-inside-1_185_2099" fill="white">
<path d="M204 -221C297.6 -221 385.584 -178.415 452.04 -101.201C518.496 -23.987 555 78.4972 555 188.001C555 297.504 518.496 399.987 452.04 477.201C385.584 554.415 297.6 597 204 597"/>
</mask>
<path d="M204 -216C296 -216 382.646 -174.164 448.25 -97.9393L455.83 -104.463C388.522 -182.666 299.2 -226 204 -226L204 -216ZM448.25 -97.9393C513.865 -21.7028 550 79.5982 550 188.001L560 188.001C560 77.3961 523.127 -26.2712 455.83 -104.463L448.25 -97.9393ZM550 188.001C550 296.403 513.865 397.703 448.25 473.939L455.83 480.463C523.127 402.271 560 298.605 560 188.001L550 188.001ZM448.25 473.939C382.646 550.164 296 592 204 592L204 602C299.2 602 388.522 558.666 455.83 480.463L448.25 473.939Z" fill="#0A0A0B" mask="url(#path-1-inside-1_185_2099)"/>
<path d="M555 175.999L168.001 258.397" stroke="#0A0A0B" stroke-width="11" stroke-miterlimit="10"/>
<path d="M551.8 212.6C574.886 212.6 593.6 193.885 593.6 170.8C593.6 147.714 574.886 129 551.8 129C528.715 129 510 147.714 510 170.8C510 193.885 528.715 212.6 551.8 212.6Z" fill="#008AFF"/>
<path d="M3.19922 292.299C3.19922 272.299 12.2993 253.499 28.7993 239.299C45.2993 225.099 67.1994 217.299 90.5994 217.299C113.999 217.299 135.899 225.099 152.399 239.299C168.899 253.499 177.999 272.299 177.999 292.299" stroke="#0A0A0B" stroke-width="5" stroke-miterlimit="10" stroke-linejoin="round"/>
</svg>
